<svg width="140" height="26" viewBox="0 0 140 26" fill="none" xmlns="http://www.w3.org/2000/svg">
<g clip-path="url(#clip0_2028_5)">
<path d="M4.87494 9.75V16.25" stroke="#52483E" stroke-width="2.4375" stroke-linecap="round" stroke-linejoin="round"/>
<path d="M8.93744 3.25V22.75" stroke="#52483E" stroke-width="2.4375" stroke-linecap="round" stroke-linejoin="round"/>
<path d="M12.9999 6.5V19.5" stroke="#52483E" stroke-width="2.4375" stroke-linecap="round" stroke-linejoin="round"/>
<path d="M17.0624 9.75V16.25" stroke="#52483E" stroke-width="2.4375" stroke-linecap="round" stroke-linejoin="round"/>
<path d="M21.1251 8.125V17.875" stroke="#52483E" stroke-width="2.4375" stroke-linecap="round" stroke-linejoin="round"/>
</g>
<path d="M36.6084 20L33.59 14.6688H32.2964V20H29.5524V6.3192H34.6876C35.746 6.3192 36.6476 6.50867 37.3924 6.8876C38.1372 7.25347 38.6925 7.75653 39.0584 8.3968C39.4373 9.024 39.6268 9.7296 39.6268 10.5136C39.6268 11.4152 39.3655 12.2319 38.8428 12.9636C38.3201 13.6823 37.5427 14.1788 36.5104 14.4532L39.7836 20H36.6084ZM32.2964 12.6108H34.5896C35.3344 12.6108 35.8897 12.4344 36.2556 12.0816C36.6215 11.7157 36.8044 11.2127 36.8044 10.5724C36.8044 9.9452 36.6215 9.46173 36.2556 9.122C35.8897 8.7692 35.3344 8.5928 34.5896 8.5928H32.2964V12.6108ZM52.2027 14.3356C52.2027 14.7276 52.1765 15.0804 52.1243 15.394H44.1863C44.2516 16.178 44.526 16.7921 45.0095 17.2364C45.4929 17.6807 46.0875 17.9028 46.7931 17.9028C47.8123 17.9028 48.5375 17.4651 48.9687 16.5896H51.9283C51.6147 17.6349 51.0136 18.4973 50.1251 19.1768C49.2365 19.8432 48.1455 20.1764 46.8519 20.1764C45.8065 20.1764 44.8657 19.9477 44.0295 19.4904C43.2063 19.02 42.5595 18.3601 42.0891 17.5108C41.6317 16.6615 41.4031 15.6815 41.4031 14.5708C41.4031 13.4471 41.6317 12.4605 42.0891 11.6112C42.5464 10.7619 43.1867 10.1085 44.0099 9.6512C44.8331 9.19387 45.7804 8.9652 46.8519 8.9652C47.8841 8.9652 48.8053 9.18733 49.6155 9.6316C50.4387 10.0759 51.0724 10.7096 51.5167 11.5328C51.974 12.3429 52.2027 13.2772 52.2027 14.3356ZM49.3607 13.5516C49.3476 12.846 49.0928 12.2841 48.5963 11.866C48.0997 11.4348 47.4921 11.2192 46.7735 11.2192C46.094 11.2192 45.5191 11.4283 45.0487 11.8464C44.5913 12.2515 44.3104 12.8199 44.2059 13.5516H49.3607ZM58.3607 20.1764C57.4722 20.1764 56.6751 20.0196 55.9695 19.706C55.2639 19.3793 54.7021 18.9416 54.2839 18.3928C53.8789 17.844 53.6567 17.2364 53.6175 16.57H56.3811C56.4334 16.9881 56.6359 17.3344 56.9887 17.6088C57.3546 17.8832 57.8054 18.0204 58.3411 18.0204C58.8638 18.0204 59.2689 17.9159 59.5563 17.7068C59.8569 17.4977 60.0071 17.2299 60.0071 16.9032C60.0071 16.5504 59.8242 16.2891 59.4583 16.1192C59.1055 15.9363 58.5371 15.7403 57.7531 15.5312C56.943 15.3352 56.2766 15.1327 55.7539 14.9236C55.2443 14.7145 54.8001 14.3944 54.4211 13.9632C54.0553 13.532 53.8723 12.9505 53.8723 12.2188C53.8723 11.6177 54.0422 11.0689 54.3819 10.5724C54.7347 10.0759 55.2313 9.68387 55.8715 9.3964C56.5249 9.10893 57.2893 8.9652 58.1647 8.9652C59.4583 8.9652 60.4906 9.29187 61.2615 9.9452C62.0325 10.5855 62.4571 11.4544 62.5355 12.552H59.9091C59.8699 12.1208 59.687 11.7811 59.3603 11.5328C59.0467 11.2715 58.6221 11.1408 58.0863 11.1408C57.5898 11.1408 57.2043 11.2323 56.9299 11.4152C56.6686 11.5981 56.5379 11.8529 56.5379 12.1796C56.5379 12.5455 56.7209 12.8264 57.0867 13.0224C57.4526 13.2053 58.021 13.3948 58.7919 13.5908C59.5759 13.7868 60.2227 13.9893 60.7323 14.1984C61.2419 14.4075 61.6797 14.7341 62.0455 15.1784C62.4245 15.6096 62.6205 16.1845 62.6335 16.9032C62.6335 17.5304 62.4571 18.0923 62.1043 18.5888C61.7646 19.0853 61.2681 19.4773 60.6147 19.7648C59.9745 20.0392 59.2231 20.1764 58.3607 20.1764ZM69.7076 20.1764C68.6623 20.1764 67.7215 19.9477 66.8852 19.4904C66.0489 19.02 65.3891 18.3601 64.9056 17.5108C64.4352 16.6615 64.2 15.6815 64.2 14.5708C64.2 13.4601 64.4417 12.4801 64.9252 11.6308C65.4217 10.7815 66.0947 10.1281 66.944 9.6708C67.7933 9.2004 68.7407 8.9652 69.786 8.9652C70.8313 8.9652 71.7787 9.2004 72.628 9.6708C73.4773 10.1281 74.1437 10.7815 74.6272 11.6308C75.1237 12.4801 75.372 13.4601 75.372 14.5708C75.372 15.6815 75.1172 16.6615 74.6076 17.5108C74.1111 18.3601 73.4316 19.02 72.5692 19.4904C71.7199 19.9477 70.766 20.1764 69.7076 20.1764ZM69.7076 17.7852C70.2041 17.7852 70.668 17.6676 71.0992 17.4324C71.5435 17.1841 71.8963 16.8183 72.1576 16.3348C72.4189 15.8513 72.5496 15.2633 72.5496 14.5708C72.5496 13.5385 72.2752 12.748 71.7264 12.1992C71.1907 11.6373 70.5308 11.3564 69.7468 11.3564C68.9628 11.3564 68.3029 11.6373 67.7672 12.1992C67.2445 12.748 66.9832 13.5385 66.9832 14.5708C66.9832 15.6031 67.238 16.4001 67.7476 16.962C68.2703 17.5108 68.9236 17.7852 69.7076 17.7852ZM83.402 8.9848C84.6956 8.9848 85.741 9.3964 86.538 10.2196C87.3351 11.0297 87.7336 12.1665 87.7336 13.63V20H84.9896V14.0024C84.9896 13.14 84.774 12.4801 84.3428 12.0228C83.9116 11.5524 83.3236 11.3172 82.5788 11.3172C81.821 11.3172 81.2199 11.5524 80.7756 12.0228C80.3444 12.4801 80.1288 13.14 80.1288 14.0024V20H77.3848V9.1416H80.1288V10.494C80.4947 10.0236 80.9586 9.65773 81.5204 9.3964C82.0954 9.122 82.7226 8.9848 83.402 8.9848ZM89.6374 14.5316C89.6374 13.434 89.853 12.4605 90.2842 11.6112C90.7285 10.7619 91.323 10.1085 92.0678 9.6512C92.8257 9.19387 93.6685 8.9652 94.5962 8.9652C95.4064 8.9652 96.112 9.12853 96.713 9.4552C97.3272 9.78187 97.8172 10.1935 98.183 10.69V9.1416H100.947V20H98.183V18.4124C97.8302 18.922 97.3402 19.3467 96.713 19.6864C96.0989 20.0131 95.3868 20.1764 94.5766 20.1764C93.662 20.1764 92.8257 19.9412 92.0678 19.4708C91.323 19.0004 90.7285 18.3405 90.2842 17.4912C89.853 16.6288 89.6374 15.6423 89.6374 14.5316ZM98.183 14.5708C98.183 13.9044 98.0524 13.336 97.791 12.8656C97.5297 12.3821 97.1769 12.0163 96.7326 11.768C96.2884 11.5067 95.8114 11.376 95.3018 11.376C94.7922 11.376 94.3218 11.5001 93.8906 11.7484C93.4594 11.9967 93.1066 12.3625 92.8322 12.846C92.5709 13.3164 92.4402 13.8783 92.4402 14.5316C92.4402 15.1849 92.5709 15.7599 92.8322 16.2564C93.1066 16.7399 93.4594 17.1123 93.8906 17.3736C94.3349 17.6349 94.8053 17.7656 95.3018 17.7656C95.8114 17.7656 96.2884 17.6415 96.7326 17.3932C97.1769 17.1319 97.5297 16.766 97.791 16.2956C98.0524 15.8121 98.183 15.2372 98.183 14.5708ZM109.644 8.9848C110.937 8.9848 111.983 9.3964 112.78 10.2196C113.577 11.0297 113.975 12.1665 113.975 13.63V20H111.231V14.0024C111.231 13.14 111.016 12.4801 110.585 12.0228C110.153 11.5524 109.565 11.3172 108.821 11.3172C108.063 11.3172 107.462 11.5524 107.017 12.0228C106.586 12.4801 106.371 13.14 106.371 14.0024V20H103.627V9.1416H106.371V10.494C106.736 10.0236 107.2 9.65773 107.762 9.3964C108.337 9.122 108.964 8.9848 109.644 8.9848ZM115.879 14.5708C115.879 13.4471 116.108 12.4671 116.565 11.6308C117.023 10.7815 117.656 10.1281 118.466 9.6708C119.277 9.2004 120.204 8.9652 121.25 8.9652C122.595 8.9652 123.706 9.30493 124.582 9.9844C125.47 10.6508 126.065 11.5916 126.365 12.8068H123.406C123.249 12.3364 122.981 11.9705 122.602 11.7092C122.236 11.4348 121.779 11.2976 121.23 11.2976C120.446 11.2976 119.825 11.5851 119.368 12.16C118.911 12.7219 118.682 13.5255 118.682 14.5708C118.682 15.6031 118.911 16.4067 119.368 16.9816C119.825 17.5435 120.446 17.8244 121.23 17.8244C122.341 17.8244 123.066 17.3279 123.406 16.3348H126.365C126.065 17.5108 125.47 18.4451 124.582 19.1376C123.693 19.8301 122.582 20.1764 121.25 20.1764C120.204 20.1764 119.277 19.9477 118.466 19.4904C117.656 19.02 117.023 18.3667 116.565 17.5304C116.108 16.6811 115.879 15.6945 115.879 14.5708ZM138.469 14.3356C138.469 14.7276 138.443 15.0804 138.391 15.394H130.453C130.518 16.178 130.793 16.7921 131.276 17.2364C131.76 17.6807 132.354 17.9028 133.06 17.9028C134.079 17.9028 134.804 17.4651 135.235 16.5896H138.195C137.881 17.6349 137.28 18.4973 136.392 19.1768C135.503 19.8432 134.412 20.1764 133.119 20.1764C132.073 20.1764 131.133 19.9477 130.296 19.4904C129.473 19.02 128.826 18.3601 128.356 17.5108C127.899 16.6615 127.67 15.6815 127.67 14.5708C127.67 13.4471 127.899 12.4605 128.356 11.6112C128.813 10.7619 129.453 10.1085 130.277 9.6512C131.1 9.19387 132.047 8.9652 133.119 8.9652C134.151 8.9652 135.072 9.18733 135.882 9.6316C136.705 10.0759 137.339 10.7096 137.783 11.5328C138.241 12.3429 138.469 13.2772 138.469 14.3356ZM135.627 13.5516C135.614 12.846 135.36 12.2841 134.863 11.866C134.367 11.4348 133.759 11.2192 133.04 11.2192C132.361 11.2192 131.786 11.4283 131.315 11.8464C130.858 12.2515 130.577 12.8199 130.473 13.5516H135.627Z" fill="#52483E"/>
<defs>
<clipPath id="clip0_2028_5">
<rect width="26" height="26" fill="white"/>
</clipPath>
</defs>
</svg>
